<svg width="158" height="28" viewBox="0 0 158 28" fill="none" xmlns="http://www.w3.org/2000/svg">
<path fill-rule="evenodd" clip-rule="evenodd" d="M48.4952 13.1446C43.8069 13.1446 40.3657 17.3855 40.3657 21.7903C40.3657 26.005 43.1394 27.9895 47.2469 27.9895C48.7734 27.9895 50.3548 27.6283 51.7945 27.1915L52.2653 24.2683C50.8795 24.9035 49.4123 25.2878 47.8858 25.2878C45.5057 25.2878 44.1168 24.452 43.937 22.2218H43.9349C43.9285 22.0895 43.9148 21.9635 43.9148 21.827C43.9148 21.8018 43.919 21.7745 43.919 21.7493C43.919 21.7367 43.9169 21.721 43.9169 21.7084H43.919C43.9349 20.7361 44.1475 19.7785 44.5219 18.8954C45.2349 17.0894 46.2494 15.8431 48.4391 15.8431C49.993 15.8431 50.7981 16.6925 50.7981 18.2098C50.7981 18.5405 50.7716 18.8429 50.7113 19.1758H45.6274C45.2984 20.2898 45.2413 21.0353 45.2328 21.7084H53.9864C54.2074 20.6626 54.3502 19.6157 54.3502 18.5405C54.3502 14.9338 52.0198 13.1446 48.4952 13.1446ZM42.1894 13.4743H37.3615L32.1771 18.6245H32.1178L34.59 7H30.8717L26.4616 27.6566H30.0921L31.7042 20.1397H31.7592L35.4489 27.6566H39.6379L35.3379 19.9433L42.1894 13.4743ZM59.8912 23.7454C59.8912 23.1952 59.9758 22.6985 60.0583 22.3678L61.4165 16.1728H64.7466L65.3316 13.4743H62.0005L62.9187 9.26066L58.9222 10.5564L58.2822 13.4743H55.5943L55.0072 16.1728H57.7015L56.6479 20.965C56.3982 22.0927 56.1729 23.1668 56.1729 24.2683C56.1729 26.9972 57.949 27.9895 60.474 27.9895C61.114 27.9895 61.8333 27.7942 62.4744 27.6566L63.1123 24.7912C62.6373 24.9854 61.9761 25.1219 61.3065 25.1219C60.474 25.1219 59.8912 24.599 59.8912 23.7454ZM4.88189 23.7454C4.88189 23.1952 4.96757 22.6985 5.05114 22.3678L6.40833 16.1728H9.73944L10.3212 13.4743H6.9912L7.90728 9.26066L3.91291 10.5564L3.27293 13.4743H0.580749L0 16.1728H2.69218L1.63646 20.965C1.38787 22.0927 1.16361 23.1668 1.16361 24.2683C1.16361 26.9972 2.94077 27.9895 5.46687 27.9895C6.10262 27.9895 6.82618 27.7942 7.46511 27.6566L8.10192 24.7912C7.63013 24.9854 6.96369 25.1219 6.29832 25.1219C5.46687 25.1219 4.88189 24.599 4.88189 23.7454ZM19.4419 21.4312C19.4419 18.761 21.1048 16.0069 24.0741 16.0069C25.1012 16.0069 26.0692 16.2547 26.7948 16.7251L27.7088 13.6948C26.7102 13.3945 25.3795 13.1446 23.9916 13.1446C18.8569 13.1446 15.5586 16.9151 15.5586 21.8732C15.5586 25.5377 17.945 27.9895 21.6316 27.9895C22.8534 27.9895 24.0741 27.875 25.2113 27.3248L25.628 24.4048C24.657 24.8741 23.5187 25.1219 22.6048 25.1219C20.0512 25.1219 19.4419 23.276 19.4419 21.4312ZM16.9263 7.35805H13.2091L12.4306 10.885H16.1488L16.9263 7.35805ZM11.8477 13.4743L8.79691 27.6566H12.5141L15.5639 13.4743H11.8477ZM95.9071 13.1551C94.2442 13.1551 92.6342 13.4575 91.0495 14.0098L90.5249 16.9571C91.9942 16.2683 93.5788 15.8546 95.2132 15.8546C96.5164 15.8546 98.0682 16.2683 98.0682 17.6995C98.0682 18.1132 98.0682 18.5269 97.9593 18.9122H96.655C93.1631 18.9122 87.8887 19.2713 87.8887 23.9512C87.8887 26.5678 89.7209 28 92.2999 28C94.3531 28 95.63 27.0917 96.9046 25.4957H96.9586L96.5746 27.6692H99.7089C100.041 24.998 101.456 19.433 101.456 17.5325C101.456 14.202 98.7622 13.1551 95.9071 13.1551ZM93.3292 25.2983C92.3824 25.2983 91.4378 24.8048 91.4378 23.8147C91.4378 21.4175 94.4335 21.1162 96.2382 21.1162H97.5436C96.9586 23.401 96.1017 25.2983 93.3292 25.2983ZM83.5273 13.1446C81.5291 13.1446 79.4494 13.9972 78.5047 15.8431H78.4466C78.253 14.1348 76.5044 13.1446 74.8129 13.1446C73.0622 13.1446 71.4279 13.9143 70.4303 15.3748H70.3743L70.7075 13.4743H67.2399C67.1553 13.9143 67.0442 14.4949 66.9342 15.0451L64.3256 27.6566H68.0439L69.5153 20.9093C69.986 19.0078 70.68 16.0069 73.2029 16.0069C74.1497 16.0069 74.9525 16.6684 74.9525 17.7142C74.9525 18.5689 74.6743 19.8908 74.4797 20.7424L72.9818 27.6566H76.7011L78.1673 20.9093C78.6433 18.9815 79.277 16.0069 81.8623 16.0069C82.8059 16.0069 83.6098 16.6684 83.6098 17.7142C83.6098 18.5689 83.3327 19.8908 83.1391 20.7424L81.6391 27.6566H85.3574L86.8521 20.881C87.1589 19.727 87.4921 18.2885 87.4921 17.0275C87.4921 14.8781 85.6599 13.1446 83.5273 13.1446ZM131.644 13.1446C126.959 13.1446 123.519 17.3855 123.519 21.7903C123.519 26.005 126.293 27.9895 130.398 27.9895C131.925 27.9895 133.506 27.6283 134.947 27.1915L135.419 24.2683C134.032 24.9035 132.562 25.2878 131.037 25.2878C128.656 25.2878 127.266 24.452 127.092 22.2218H127.087C127.08 22.0895 127.068 21.9635 127.068 21.827C127.068 21.8018 127.068 21.7745 127.072 21.7493C127.072 21.7367 127.068 21.721 127.068 21.7084H127.072C127.087 20.7361 127.306 19.7785 127.675 18.8954C128.388 17.0894 129.4 15.8431 131.59 15.8431C133.144 15.8431 133.948 16.6925 133.948 18.2098C133.948 18.5405 133.923 18.8429 133.865 19.1758H128.778C128.45 20.2898 128.388 21.0353 128.384 21.7084H137.14C137.361 20.6626 137.501 19.6157 137.501 18.5405C137.501 14.9338 135.168 13.1446 131.644 13.1446ZM143.52 16.1455H143.466L143.964 13.4743H140.41C140.303 14.1348 140.189 14.7679 140.08 15.3748L137.528 27.6566H141.247L142.578 21.2968C143.051 19.0078 144.325 16.6684 146.96 16.6684C147.431 16.6684 147.96 16.7503 148.375 16.8889L149.154 13.2801C148.71 13.1698 148.209 13.1446 147.737 13.1446C146.015 13.1446 144.188 14.6041 143.52 16.1455ZM119.175 23.7454C119.175 23.1952 119.258 22.6985 119.34 22.3678L120.702 16.1728H124.028L124.611 13.4743H121.284L122.198 9.26066L118.202 10.5564L117.566 13.4743H114.876L114.293 16.1728H116.981L115.93 20.965C115.68 22.0927 115.458 23.1668 115.458 24.2683C115.458 26.9972 117.233 27.9895 119.758 27.9895C120.396 27.9895 121.119 27.7942 121.756 27.6566L122.394 24.7912C121.923 24.9854 121.254 25.1219 120.59 25.1219C119.758 25.1219 119.175 24.599 119.175 23.7454ZM103.641 17.6596C103.641 21.2117 108.465 21.4312 108.465 23.7191C108.465 24.8741 107.161 25.2878 105.913 25.2878C104.471 25.2878 103.418 24.7628 102.364 24.1853L101.556 27.1348C102.917 27.7669 104.413 27.9895 105.913 27.9895C109.106 27.9895 112.349 26.8859 112.349 23.1952C112.349 19.727 107.522 19.0645 107.522 17.2742C107.522 16.1455 108.909 15.8431 110.019 15.8431C111.074 15.8431 112.101 16.1455 112.5 16.3628L113.303 13.5793C112.57 13.3945 111.184 13.1446 109.824 13.1446C106.882 13.1446 103.641 14.329 103.641 17.6596ZM154.086 13.1614C152.323 13.1614 150.888 14.5863 150.888 16.3366C150.888 18.0848 152.323 19.5065 154.086 19.5065C155.846 19.5065 157.282 18.0848 157.282 16.3366C157.282 14.5863 155.846 13.1614 154.086 13.1614ZM154.094 19.0351C152.609 19.0351 151.497 17.8559 151.497 16.3366C151.497 14.8172 152.609 13.6381 154.094 13.6381C155.563 13.6381 156.672 14.8172 156.672 16.3366C156.672 17.8559 155.563 19.0351 154.094 19.0351ZM155.581 15.5207C155.581 14.8172 155.16 14.4718 154.298 14.4718H152.865V18.1909H153.474V16.5476H153.986L155.035 18.1909H155.681L154.615 16.5476C155.202 16.5476 155.581 16.1161 155.581 15.5207ZM153.474 16.072V14.9474H154.199C154.59 14.9474 154.972 15.0713 154.972 15.4924C154.972 15.9754 154.666 16.072 154.199 16.072H153.474Z" fill="white"/>
</svg>
