<svg width="24" height="24" viewBox="0 0 24 24" fill="none" xmlns="http://www.w3.org/2000/svg">
<path fill-rule="evenodd" clip-rule="evenodd" d="M8 6.5C8 4.28869 9.78869 2.5 12 2.5C14.2113 2.5 16 4.28869 16 6.5C16 8.71131 14.2113 10.5 12 10.5C9.78869 10.5 8 8.71131 8 6.5ZM12 1C8.96026 1 6.5 3.46026 6.5 6.5C6.5 9.53974 8.96026 12 12 12C15.0397 12 17.5 9.53974 17.5 6.5C17.5 3.46026 15.0397 1 12 1ZM18.4868 13H5.4345L1 16.9066V23H23V16.8789L18.4868 13ZM2.5 17.5842L6.00099 14.5H17.9308L21.5 17.5676V21.5H2.5V17.5842Z" fill="#121212"/>
</svg>
